# xmcd
#
# Track frame offsets:
#	150
#	15607
#	30978
#	35318
#	51460
#	55115
#	72562
#	75566
#	94230
#	99199
#	112979
#	125900
#	142652
#	161715
#	165321
#	182457
#	199782
#	217318
#	231247
#	233882
#
# Disc length: 3270 seconds
# Revision: 0
# Processed by: cddbd v1.5.2PL0 Copyright (c) Steve Scherf et al.
# Submitted via: dBpowerAMP V12.0
#
DISCID=0b0cc414
DTITLE=Lucy Zirins - Live At The Old Courts
DYEAR=2017
DGENRE=Country
TTITLE0=What's In Front Of Me (Live At The Old Courts)
TTITLE1=One Day Soon (Live At The Old Courts)
TTITLE2=Interlude: The Big Guitar (Live At The Old Courts)
TTITLE3=Tearing Me Down (Live At The Old Courts)
TTITLE4=Interlude: Netflix (Live At The Old Courts)
TTITLE5=Right Side Of Wrong (Live At The Old Courts)
TTITLE6=Interlude: Hi Dad! (Live At The Old Courts)
TTITLE7=Separate Ways (Live At The Old Courts)
TTITLE8=Interlude: First BBC Session (Live At The Old Courts)
TTITLE9=You Won't Remember Me (Live At The Old Courts)
TTITLE10=The Fall (Live At The Old Courts)
TTITLE11=In Tall Buildings (Live At The Old Courts)
TTITLE12=Make Me Down A Pallet On Your Floor (Live At The Old Courts)
TTITLE13=Interlude: Bins and Moisturiser (Live At The Old Courts)
TTITLE14=Mercy (Live At The Old Courts)
TTITLE15=Changing Ground (Live At The Old Courts)
TTITLE16=Worry And The Wine (Live At The Old Courts)
TTITLE17=Goodnight (Live At The Old Courts)
TTITLE18=Interlude: Thanks and Cottage Pie! (Live At The Old Courts)
TTITLE19=Stand By Me (Live At The Old Courts)
EXTD=
EXTT0=
EXTT1=
EXTT2=
EXTT3=
EXTT4=
EXTT5=
EXTT6=
EXTT7=
EXTT8=
EXTT9=
EXTT10=
EXTT11=
EXTT12=
EXTT13=
EXTT14=
EXTT15=
EXTT16=
EXTT17=
EXTT18=
EXTT19=
PLAYORDER=
